<svg width="33" height="32" viewBox="0 0 33 32" fill="none" xmlns="http://www.w3.org/2000/svg">
<path fill-rule="evenodd" clip-rule="evenodd" d="M16.5557 5.63636C10.832 5.63636 6.19203 10.2763 6.19203 16C6.19203 21.7236 10.832 26.3636 16.5557 26.3636C22.2794 26.3636 26.9194 21.7236 26.9194 16C26.9194 10.2763 22.2794 5.63636 16.5557 5.63636ZM4.55566 16C4.55566 9.37258 9.92825 4 16.5557 4C23.183 4 28.5558 9.37258 28.5558 16C28.5558 22.6274 23.183 28 16.5557 28C9.92825 28 4.55566 22.6274 4.55566 16Z" fill="#454545"/>
<path fill-rule="evenodd" clip-rule="evenodd" d="M27.4646 16.7273H5.64648V15.2727H27.4646V16.7273Z" fill="#454545"/>
<path fill-rule="evenodd" clip-rule="evenodd" d="M15.8282 26.909V5.0908H17.2827V26.909H15.8282ZM21.7829 15.9999C21.7829 12.0494 20.3622 8.14131 17.5771 5.55727L18.4428 4.62427C21.5367 7.49476 23.0556 11.7685 23.0556 15.9999C23.0556 20.2313 21.5367 24.505 18.4428 27.3756L17.5771 26.4425C20.3622 23.8585 21.7829 19.9503 21.7829 15.9999ZM10.1914 15.9999C10.1914 11.7746 11.6608 7.50313 14.6605 4.63114L15.5407 5.55045C12.8432 8.13304 11.4641 12.0433 11.4641 15.9999C11.4642 19.9565 12.8433 23.8668 15.5407 26.4494L14.6605 27.3687C11.6608 24.4967 10.1914 20.2252 10.1914 15.9999Z" fill="#454545"/>
<path fill-rule="evenodd" clip-rule="evenodd" d="M16.5556 9.56006C20.4998 9.56006 24.5108 10.2894 27.2295 11.8082C27.5364 11.9796 27.6462 12.3673 27.4748 12.6741C27.3035 12.9809 26.9157 13.0907 26.6089 12.9193C24.1546 11.5483 20.3884 10.8328 16.5556 10.8328C12.7228 10.8328 8.95657 11.5483 6.50224 12.9193C6.1954 13.0907 5.80773 12.9809 5.63633 12.6741C5.46495 12.3673 5.57473 11.9796 5.88157 11.8082C8.60046 10.2894 12.6113 9.56006 16.5556 9.56006ZM16.5556 22.091C20.4998 22.091 24.5108 21.3615 27.2295 19.8428C27.5364 19.6714 27.6462 19.2837 27.4748 18.9769C27.3035 18.6701 26.9157 18.5603 26.6089 18.7317C24.1546 20.1027 20.3884 20.8182 16.5556 20.8182C12.7228 20.8182 8.95657 20.1027 6.50224 18.7317C6.1954 18.5603 5.80773 18.6701 5.63633 18.9769C5.46495 19.2837 5.57473 19.6714 5.88157 19.8428C8.60046 21.3615 12.6113 22.091 16.5556 22.091Z" fill="#454545"/>
</svg>
