<svg width="33" height="32" viewBox="0 0 33 32" fill="none" xmlns="http://www.w3.org/2000/svg">
<path fill-rule="evenodd" clip-rule="evenodd" d="M11.1011 9.98046C11.1011 8.06984 11.6295 6.64094 12.5045 5.69877C13.3688 4.76818 14.692 4.18181 16.5587 4.18181C18.4265 4.18181 19.7478 4.76702 20.61 5.69552C21.483 6.63568 22.0102 8.06279 22.0102 9.97444V12.9564H11.1011V9.98046ZM8.9193 12.9564V9.98046C8.9193 7.67966 9.55942 5.66379 10.9058 4.21404C12.263 2.7527 14.214 2 16.5587 2C18.9029 2 20.8528 2.75061 22.2088 4.21088C23.5541 5.6595 24.192 7.67417 24.192 9.97444V12.9564H26.3738C27.5789 12.9564 28.5557 13.9333 28.5557 15.1382V28.2292C28.5557 29.4342 27.5789 30.411 26.3738 30.411H6.73748C5.53251 30.411 4.55566 29.4342 4.55566 28.2292V15.1382C4.55566 13.9333 5.53251 12.9564 6.73748 12.9564H8.9193ZM6.73748 15.1382H26.3738V28.2292H6.73748V15.1382Z" fill="#454545"/>
</svg>
