<svg width="33" height="32" viewBox="0 0 33 32" fill="none" xmlns="http://www.w3.org/2000/svg">
<path fill-rule="evenodd" clip-rule="evenodd" d="M4.39453 16.0001C4.39453 9.37261 9.76713 4 16.3946 4C23.022 4 28.3945 9.37261 28.3945 16.0001C28.3945 22.6275 23.022 28.0001 16.3946 28.0001C9.76713 28.0001 4.39453 22.6275 4.39453 16.0001ZM16.3946 5.78885C10.7551 5.78885 6.18338 10.3606 6.18338 16.0001C6.18338 18.609 7.16181 20.9895 8.77177 22.7943C10.4701 20.4209 13.2513 18.8718 16.3952 18.8718C19.5388 18.8718 22.3196 20.4205 24.0181 22.7936C25.6277 20.9887 26.6057 18.6086 26.6057 16.0001C26.6057 10.3606 22.0339 5.78885 16.3946 5.78885ZM22.7002 24.0322C21.3399 21.9978 19.0231 20.6607 16.3952 20.6607C13.767 20.6607 11.4501 21.9982 10.0898 24.033C11.8259 25.3974 14.0152 26.2112 16.3946 26.2112C18.7743 26.2112 20.964 25.3972 22.7002 24.0322ZM11.9697 14.1265C11.9697 11.6826 13.9509 9.70142 16.3948 9.70142C18.8387 9.70142 20.8198 11.6826 20.8198 14.1265C20.8198 16.5704 18.8387 18.5515 16.3948 18.5515C13.9509 18.5515 11.9697 16.5704 11.9697 14.1265ZM16.3948 11.4903C14.9389 11.4903 13.7586 12.6705 13.7586 14.1265C13.7586 15.5824 14.9389 16.7627 16.3948 16.7627C17.8507 16.7627 19.031 15.5824 19.031 14.1265C19.031 12.6705 17.8507 11.4903 16.3948 11.4903Z" fill="#454545"/>
</svg>
