<svg width="33" height="32" viewBox="0 0 33 32" fill="none" xmlns="http://www.w3.org/2000/svg">
<path fill-rule="evenodd" clip-rule="evenodd" d="M10.8561 3C11.3659 3 11.7791 3.41328 11.7791 3.92308V4.84615H21.0099V3.92308C21.0099 3.41328 21.4233 3 21.933 3C22.4427 3 22.8561 3.41328 22.8561 3.92308V4.84615H25.6253C27.1546 4.84615 28.3945 6.08597 28.3945 7.61538V24.2308C28.3945 25.7601 27.1546 27 25.6253 27H7.16376C5.63435 27 4.39453 25.7601 4.39453 24.2308V7.61538C4.39453 6.08597 5.63435 4.84615 7.16376 4.84615H9.93299V3.92308C9.93299 3.41328 10.3463 3 10.8561 3ZM21.0099 6.69231V7.61538C21.0099 8.12518 21.4233 8.53846 21.933 8.53846C22.4427 8.53846 22.8561 8.12518 22.8561 7.61538V6.69231H25.6253C26.135 6.69231 26.5484 7.10559 26.5484 7.61538V10.3846H6.24068V7.61538C6.24068 7.10559 6.65396 6.69231 7.16376 6.69231H9.93299V7.61538C9.93299 8.12518 10.3463 8.53846 10.8561 8.53846C11.3659 8.53846 11.7791 8.12518 11.7791 7.61538V6.69231H21.0099ZM6.24068 12.2308V24.2308C6.24068 24.7405 6.65396 25.1538 7.16376 25.1538H25.6253C26.135 25.1538 26.5484 24.7405 26.5484 24.2308V12.2308H6.24068ZM15.4714 15C15.4714 14.4902 15.8847 14.0769 16.3945 14.0769C16.9043 14.0769 17.3176 14.4902 17.3176 15C17.3176 15.5098 16.9043 15.9231 16.3945 15.9231C15.8847 15.9231 15.4714 15.5098 15.4714 15ZM20.0868 14.0769C19.577 14.0769 19.1638 14.4902 19.1638 15C19.1638 15.5098 19.577 15.9231 20.0868 15.9231C20.5966 15.9231 21.0099 15.5098 21.0099 15C21.0099 14.4902 20.5966 14.0769 20.0868 14.0769ZM22.8561 15C22.8561 14.4902 23.2694 14.0769 23.7791 14.0769C24.2889 14.0769 24.7022 14.4902 24.7022 15C24.7022 15.5098 24.2889 15.9231 23.7791 15.9231C23.2694 15.9231 22.8561 15.5098 22.8561 15ZM23.7791 17.7692C23.2694 17.7692 22.8561 18.1825 22.8561 18.6923C22.8561 19.2021 23.2694 19.6154 23.7791 19.6154C24.2889 19.6154 24.7022 19.2021 24.7022 18.6923C24.7022 18.1825 24.2889 17.7692 23.7791 17.7692ZM19.1638 18.6923C19.1638 18.1825 19.577 17.7692 20.0868 17.7692C20.5966 17.7692 21.0099 18.1825 21.0099 18.6923C21.0099 19.2021 20.5966 19.6154 20.0868 19.6154C19.577 19.6154 19.1638 19.2021 19.1638 18.6923ZM16.3945 17.7692C15.8847 17.7692 15.4714 18.1825 15.4714 18.6923C15.4714 19.2021 15.8847 19.6154 16.3945 19.6154C16.9043 19.6154 17.3176 19.2021 17.3176 18.6923C17.3176 18.1825 16.9043 17.7692 16.3945 17.7692ZM11.7791 18.6923C11.7791 18.1825 12.1924 17.7692 12.7022 17.7692C13.212 17.7692 13.6253 18.1825 13.6253 18.6923C13.6253 19.2021 13.212 19.6154 12.7022 19.6154C12.1924 19.6154 11.7791 19.2021 11.7791 18.6923ZM9.00991 17.7692C8.50012 17.7692 8.08684 18.1825 8.08684 18.6923C8.08684 19.2021 8.50012 19.6154 9.00991 19.6154C9.51971 19.6154 9.93299 19.2021 9.93299 18.6923C9.93299 18.1825 9.51971 17.7692 9.00991 17.7692ZM8.08684 22.3846C8.08684 21.8749 8.50012 21.4615 9.00991 21.4615C9.51971 21.4615 9.93299 21.8749 9.93299 22.3846C9.93299 22.8943 9.51971 23.3077 9.00991 23.3077C8.50012 23.3077 8.08684 22.8943 8.08684 22.3846ZM12.7022 21.4615C12.1924 21.4615 11.7791 21.8749 11.7791 22.3846C11.7791 22.8943 12.1924 23.3077 12.7022 23.3077C13.212 23.3077 13.6253 22.8943 13.6253 22.3846C13.6253 21.8749 13.212 21.4615 12.7022 21.4615ZM15.4714 22.3846C15.4714 21.8749 15.8847 21.4615 16.3945 21.4615C16.9043 21.4615 17.3176 21.8749 17.3176 22.3846C17.3176 22.8943 16.9043 23.3077 16.3945 23.3077C15.8847 23.3077 15.4714 22.8943 15.4714 22.3846ZM20.0868 21.4615C19.577 21.4615 19.1638 21.8749 19.1638 22.3846C19.1638 22.8943 19.577 23.3077 20.0868 23.3077C20.5966 23.3077 21.0099 22.8943 21.0099 22.3846C21.0099 21.8749 20.5966 21.4615 20.0868 21.4615Z" fill="#454545"/>
</svg>
