<svg width="35" height="35" viewBox="0 0 35 35" fill="none" xmlns="http://www.w3.org/2000/svg">
<g clip-path="url(#clip0_7_199)">
<path d="M32.4163 0H2.58371C1.89847 0 1.24131 0.272209 0.756772 0.756743C0.272237 1.24128 2.86102e-05 1.89845 2.86102e-05 2.58368V32.4163C2.86102e-05 33.1016 0.272237 33.7587 0.756772 34.2433C1.24131 34.7278 1.89847 35 2.58371 35H32.4163C33.1016 35 33.7588 34.7278 34.2433 34.2433C34.7278 33.7587 35 33.1016 35 32.4163V2.58368C35 1.89845 34.7278 1.24128 34.2433 0.756743C33.7588 0.272209 33.1016 0 32.4163 0ZM10.432 29.8156H5.16982V13.1007H10.432V29.8156ZM7.79725 10.7844C7.20035 10.781 6.61782 10.6009 6.12318 10.2668C5.62854 9.93268 5.24396 9.45952 5.01797 8.90705C4.79199 8.35457 4.73472 7.74753 4.85341 7.16254C4.97209 6.57755 5.26141 6.04082 5.68484 5.6201C6.10827 5.19938 6.64684 4.91351 7.23258 4.79859C7.81833 4.68366 8.42499 4.74482 8.976 4.97435C9.52702 5.20388 9.99769 5.59149 10.3286 6.08827C10.6596 6.58504 10.8359 7.16872 10.8354 7.76563C10.8411 8.16526 10.7662 8.56193 10.6153 8.93201C10.4643 9.30208 10.2404 9.63798 9.9569 9.91968C9.67339 10.2014 9.33606 10.4231 8.96502 10.5717C8.59399 10.7202 8.19684 10.7926 7.79725 10.7844ZM29.8278 29.8302H24.5681V20.6986C24.5681 18.0056 23.4233 17.1743 21.9455 17.1743C20.3851 17.1743 18.8538 18.3507 18.8538 20.7667V29.8302H13.5917V13.1128H18.6521V15.4292H18.7202C19.2282 14.401 21.0073 12.6438 23.7223 12.6438C26.6584 12.6438 29.8302 14.3865 29.8302 19.4906L29.8278 29.8302Z" fill="#0A66C2"/>
</g>
<defs>
<clipPath id="clip0_7_199">
<rect width="35" height="35" fill="white"/>
</clipPath>
</defs>
</svg>
