<svg width="35" height="35" viewBox="0 0 35 35" fill="none" xmlns="http://www.w3.org/2000/svg">
<g clip-path="url(#clip0_7_223)">
<path d="M34.3029 9.02047C34.105 8.27587 33.715 7.59629 33.172 7.04976C32.6289 6.50323 31.9519 6.10891 31.2085 5.90627C28.4722 5.17047 17.5347 5.17047 17.5347 5.17047C17.5347 5.17047 6.59718 5.17047 3.86082 5.90627C3.1175 6.10891 2.44044 6.50323 1.89739 7.04976C1.35435 7.59629 0.964379 8.27587 0.766501 9.02047C0.0346833 11.7688 0.0346832 17.5 0.0346832 17.5C0.0346832 17.5 0.0346833 23.2313 0.766501 25.9796C0.964379 26.7242 1.35435 27.4037 1.89739 27.9503C2.44044 28.4968 3.1175 28.8911 3.86082 29.0938C6.59718 29.8296 17.5347 29.8296 17.5347 29.8296C17.5347 29.8296 28.4722 29.8296 31.2085 29.0938C31.9519 28.8911 32.6289 28.4968 33.172 27.9503C33.715 27.4037 34.105 26.7242 34.3029 25.9796C35.0347 23.2313 35.0347 17.5 35.0347 17.5C35.0347 17.5 35.0347 11.7688 34.3029 9.02047Z" fill="#FF0302"/>
<path d="M13.9552 22.7043V12.2958L23.1029 17.5L13.9552 22.7043Z" fill="#FEFEFE"/>
</g>
<defs>
<clipPath id="clip0_7_223">
<rect width="35" height="35" fill="white"/>
</clipPath>
</defs>
</svg>
