<svg width="35" height="35" viewBox="0 0 35 35" fill="none" xmlns="http://www.w3.org/2000/svg">
<g clip-path="url(#clip0_7_219)">
<path d="M17.5 3.15137C22.1758 3.15137 22.7295 3.17187 24.5683 3.25391C26.2773 3.3291 27.2002 3.61621 27.8154 3.85547C28.6289 4.16992 29.2168 4.55273 29.8252 5.16113C30.4404 5.77637 30.8164 6.35742 31.1308 7.1709C31.3701 7.78613 31.6572 8.71582 31.7324 10.418C31.8144 12.2637 31.8349 12.8174 31.8349 17.4863C31.8349 22.1621 31.8144 22.7158 31.7324 24.5547C31.6572 26.2637 31.3701 27.1865 31.1308 27.8018C30.8164 28.6152 30.4336 29.2031 29.8252 29.8115C29.2099 30.4268 28.6289 30.8027 27.8154 31.1172C27.2002 31.3564 26.2705 31.6436 24.5683 31.7188C22.7226 31.8008 22.1689 31.8213 17.5 31.8213C12.8242 31.8213 12.2705 31.8008 10.4316 31.7188C8.72263 31.6436 7.79977 31.3564 7.18454 31.1172C6.37106 30.8027 5.78317 30.4199 5.17477 29.8115C4.55954 29.1963 4.18356 28.6152 3.86911 27.8018C3.62985 27.1865 3.34274 26.2568 3.26755 24.5547C3.18552 22.709 3.16501 22.1553 3.16501 17.4863C3.16501 12.8105 3.18552 12.2568 3.26755 10.418C3.34274 8.70898 3.62985 7.78613 3.86911 7.1709C4.18356 6.35742 4.56638 5.76953 5.17477 5.16113C5.79001 4.5459 6.37106 4.16992 7.18454 3.85547C7.79977 3.61621 8.72946 3.3291 10.4316 3.25391C12.2705 3.17187 12.8242 3.15137 17.5 3.15137ZM17.5 0C12.749 0 12.1543 0.0205078 10.2881 0.102539C8.42868 0.18457 7.15036 0.485351 6.04294 0.916016C4.88767 1.36719 3.91013 1.96191 2.93942 2.93945C1.96188 3.91016 1.36716 4.8877 0.915985 6.03613C0.485321 7.15039 0.18454 8.42188 0.102509 10.2812C0.0204773 12.1543 -3.05176e-05 12.749 -3.05176e-05 17.5C-3.05176e-05 22.251 0.0204773 22.8457 0.102509 24.7119C0.18454 26.5713 0.485321 27.8496 0.915985 28.957C1.36716 30.1123 1.96188 31.0898 2.93942 32.0605C3.91013 33.0312 4.88767 33.6328 6.0361 34.0771C7.15036 34.5078 8.42184 34.8086 10.2812 34.8906C12.1474 34.9727 12.7422 34.9932 17.4931 34.9932C22.2441 34.9932 22.8388 34.9727 24.705 34.8906C26.5644 34.8086 27.8427 34.5078 28.9502 34.0771C30.0986 33.6328 31.0761 33.0312 32.0468 32.0605C33.0175 31.0898 33.6191 30.1123 34.0634 28.9639C34.4941 27.8496 34.7949 26.5781 34.8769 24.7188C34.959 22.8525 34.9795 22.2578 34.9795 17.5068C34.9795 12.7559 34.959 12.1611 34.8769 10.2949C34.7949 8.43555 34.4941 7.15723 34.0634 6.0498C33.6328 4.8877 33.0381 3.91016 32.0605 2.93945C31.0898 1.96875 30.1123 1.36719 28.9638 0.922852C27.8496 0.492187 26.5781 0.191406 24.7187 0.109375C22.8457 0.0205078 22.2509 0 17.5 0Z" fill="#000100"/>
<path d="M17.5 8.51074C12.5371 8.51074 8.51071 12.5371 8.51071 17.5C8.51071 22.4629 12.5371 26.4893 17.5 26.4893C22.4629 26.4893 26.4892 22.4629 26.4892 17.5C26.4892 12.5371 22.4629 8.51074 17.5 8.51074ZM17.5 23.3311C14.2802 23.3311 11.6689 20.7197 11.6689 17.5C11.6689 14.2803 14.2802 11.6689 17.5 11.6689C20.7197 11.6689 23.331 14.2803 23.331 17.5C23.331 20.7197 20.7197 23.3311 17.5 23.3311Z" fill="#000100"/>
<path d="M28.9433 8.15531C28.9433 9.31742 28 10.2539 26.8447 10.2539C25.6826 10.2539 24.7461 9.31058 24.7461 8.15531C24.7461 6.9932 25.6894 6.05667 26.8447 6.05667C28 6.05667 28.9433 7.00003 28.9433 8.15531Z" fill="#000100"/>
</g>
<defs>
<clipPath id="clip0_7_219">
<rect width="35" height="35" fill="white"/>
</clipPath>
</defs>
</svg>
